<?xml version="1.0" encoding="UTF-8"?><svg id="Livello_2" xmlns="http://www.w3.org/2000/svg" viewBox="0 0 911.66 166.84"><defs><style>.cls-1{fill:#2f80ed;}</style></defs><g id="Livello_1-2"><path class="cls-1" d="M186.03,86.76c0-34.24,23.01-48.33,46.19-48.33,16.23,0,38.16,6.6,41.55,36.56h-20.69c-2.32-12.48-10.52-17.3-21.04-17.3-15.87,0-24.61,11.59-24.61,29.07s8.74,28.71,24.61,28.71c10.88,0,18.73-5.17,21.04-17.48h20.69c-2.85,29.78-25.15,36.74-41.55,36.74-23.18,0-46.19-13.73-46.19-47.97Z"/><path class="cls-1" d="M288.75,8.11h22.83v124.84h-22.83V8.11Z"/><path class="cls-1" d="M329.05,14.36c0-7.31,6.06-12.84,13.02-12.84s12.84,5.53,12.84,12.84-6.06,12.84-12.84,12.84-13.02-5.53-13.02-12.84ZM330.66,40.22h22.83v92.74h-22.83V40.22Z"/><path class="cls-1" d="M416.97,57.34c-12.48,0-21.58,7.49-21.58,22.65v52.97h-22.83V40.22h22.83v19.08h.71c1.78-8.03,10.7-20.87,30.32-20.87,18.19,0,32.28,11.06,32.28,36.2v58.32h-22.83v-52.97c0-15.16-6.6-22.65-18.9-22.65Z"/><path class="cls-1" d="M473.5,86.41c0-34.24,21.22-47.97,45.48-47.97s43.51,13.2,43.51,47.08c0,3.21-.18,4.99-.53,6.96h-66.88c1.43,17.3,10.17,24.79,24.79,24.79,11.59,0,18.37-4.46,21.04-13.38h20.33c-4.99,21.04-21.22,30.85-41.91,30.85-24.08,0-45.83-13.73-45.83-48.33ZM540.91,78.56c-.53-13.02-7.31-22.65-22.29-22.65-13.38,0-21.76,7.49-23.36,22.65h45.65Z"/><path class="cls-1" d="M643.09,166.84v-47.26c-4.46,8.74-15.16,15.16-28.71,15.16-19.97,0-40.84-14.27-40.84-48.15s20.87-48.15,40.84-48.15c13.55,0,24.25,6.42,28.71,15.16v-13.38h22.83v126.62h-22.83ZM644.17,86.58c0-19.97-11.95-29.07-24.43-29.07s-24.79,9.1-24.79,29.07,11.95,29.07,24.79,29.07,24.43-9.09,24.43-29.07Z"/><path class="cls-1" d="M726.91,115.83c12.48,0,21.58-7.49,21.58-22.65v-52.97h22.83v92.74h-22.83v-19.08h-.71c-1.78,8.03-10.7,20.87-30.32,20.87-18.19,0-32.28-11.06-32.28-36.2v-58.32h22.83v52.97c0,15.16,6.6,22.65,18.9,22.65Z"/><path class="cls-1" d="M786.12,108.7c0-19.26,15.16-24.79,32.1-27.11l17.3-2.32c9.1-1.25,11.77-2.85,11.77-7.67v-1.96c0-11.24-6.78-14.62-16.76-14.62s-18.01,3.39-18.01,13.55v1.96h-21.4v-4.1c0-18.01,12.31-28,39.95-28s38.7,9.81,38.7,30.32v64.2h-21.94v-16.59h-.89c-1.96,5.17-10.34,18.37-31.03,18.37-15.69,0-29.78-7.49-29.78-26.04ZM847.29,100.85v-11.77c-1.25,2.14-5.71,3.21-10.88,3.92l-14.62,2.32c-9.81,1.43-12.84,5.89-12.84,11.41,0,7.13,4.82,11.41,14.45,11.41,14.62,0,23.9-9.81,23.9-17.3Z"/><path class="cls-1" d="M888.84,8.11h22.83v124.84h-22.83V8.11Z"/><path class="cls-1" d="M9.79,43.66h0c9.02,17.7,27.26,28.78,47.12,28.63h0c11.52-.09,21.19,8.67,22.24,20.15h0c.56,6.11-4.23,11.39-10.37,11.44l-28.2.21h0c6.57,12.89,19.86,20.97,34.33,20.86l7.33-.06c18.61-.14,33.14,16.06,30.97,34.55h0c-39.23,15.66-84.64-.9-104.19-39.27-12.75-25.02-11.53-53.49.76-76.52Z"/><path class="cls-1" d="M155.53,121.66h0c-9.02-17.7-27.26-28.78-47.12-28.63h0c-11.52.09-21.19-8.67-22.24-20.15h0c-.56-6.11,4.23-11.39,10.37-11.44l28.2-.21h0c-6.57-12.89-19.86-20.97-34.33-20.86l-7.33.06c-18.61.14-33.14-16.06-30.97-34.55h0c39.23-15.66,84.64.9,104.19,39.27,12.75,25.02,11.53,53.49-.76,76.52Z"/></g></svg>