<?xml version="1.0" encoding="UTF-8"?><svg id="Livello_2" xmlns="http://www.w3.org/2000/svg" viewBox="0 0 165.32 165.32"><defs><style>.cls-1{fill:#2f80ed;}</style></defs><g id="Livello_1-2"><path class="cls-1" d="M9.79,43.66h0c9.02,17.7,27.26,28.78,47.12,28.63h0c11.52-.09,21.19,8.67,22.24,20.15h0c.56,6.11-4.23,11.39-10.37,11.44l-28.2.21h0c6.57,12.89,19.86,20.97,34.33,20.86l7.33-.06c18.61-.14,33.14,16.06,30.97,34.55h0c-39.23,15.66-84.64-.9-104.19-39.27-12.75-25.02-11.53-53.49.76-76.52Z"/><path class="cls-1" d="M155.53,121.66h0c-9.02-17.7-27.26-28.78-47.12-28.63h0c-11.52.09-21.19-8.67-22.24-20.15h0c-.56-6.11,4.23-11.39,10.37-11.44l28.2-.21h0c-6.57-12.89-19.86-20.97-34.33-20.86l-7.33.06c-18.61.14-33.14-16.06-30.97-34.55h0c39.23-15.66,84.64.9,104.19,39.27,12.75,25.02,11.53,53.49-.76,76.52Z"/></g></svg>